name analog
datacolumns 19
datarows 47
range 0.609 0.632
endheader
time	ground_force_vx	ground_force_vy	ground_force_vz	ground_force_px	ground_force_py	ground_force_pz	l_ground_force_vx	l_ground_force_vy	l_ground_force_vz	l_ground_force_px	l_ground_force_py	l_ground_force_pz	ground_torque_x	ground_torque_y	ground_torque_z	l_ground_torque_x	l_ground_torque_y	l_ground_torque_z
0.609	-0.0	-0.0	-0.0	-1.1384506225585938	28.661518096923828	-353.8020324707031	28.965496063232425	-27.291400909423828	-448.3951721191406	-0.0	-0.0	-0.0	-0.0	-0.0	-0.0	130475.21875	-47323.625	11560.158203125
0.6095	-0.0	-0.0	-0.0	-1.631288766860962	27.948768615722656	-352.8436279296875	27.39630889892578	-28.68019294738769	-455.28173828125	-0.0	-0.0	-0.0	-0.0	-0.0	-0.0	132373.265625	-47906.10546875	11241.56640625
0.61	-0.0	-0.0	-0.0	-1.7676000595092771	27.337337493896484	-349.1274108886719	25.15117454528809	-29.873979568481445	-460.6990051269531	-0.0	-0.0	-0.0	-0.0	-0.0	-0.0	134196.03125	-47994.609375	10765.1865234375
0.6105	-0.0	-0.0	-0.0	-1.5376940965652466	26.53976249694824	-347.3807067871094	22.976093292236328	-30.8454704284668	-467.5140380859375	-0.0	-0.0	-0.0	-0.0	-0.0	-0.0	135902.4375	-48580.7109375	10309.0498046875
0.611	-0.0	-0.0	-0.0	-1.87841272354126	25.74762535095215	-342.9179382324219	21.49301528930664	-31.66144752502441	-474.2166442871094	-0.0	-0.0	-0.0	-0.0	-0.0	-0.0	137769.0625	-49096.078125	9916.294921875
0.6115	-0.0	-0.0	-0.0	-1.616204023361206	24.836013793945312	-340.0292358398437	20.230119705200195	-32.64986801147461	-479.2699279785156	-0.0	-0.0	-0.0	-0.0	-0.0	-0.0	139461.921875	-49485.8046875	9676.572265625
0.612	-0.0	-0.0	-0.0	-2.5716514587402344	24.023380279541016	-336.93365478515625	19.41080474853516	-32.98179244995117	-487.3493347167969	-0.0	-0.0	-0.0	-0.0	-0.0	-0.0	141265.34375	-49994.4375	9410.3515625
0.6125	-0.0	-0.0	-0.0	-2.0461184978485107	23.325593948364254	-336.4378662109375	18.785633087158203	-33.27183532714844	-492.1557922363281	-0.0	-0.0	-0.0	-0.0	-0.0	-0.0	142542.296875	-50271.328125	9399.8662109375
0.613	-0.0	-0.0	-0.0	-2.161851167678833	22.671920776367188	-334.1905517578125	18.99368476867676	-33.54612350463867	-495.52874755859375	-0.0	-0.0	-0.0	-0.0	-0.0	-0.0	143650.90625	-50932.421875	9340.5439453125
0.6135	-0.0	-0.0	-0.0	-2.0580508708953857	21.61102104187012	-331.11846923828125	19.07281875610352	-33.655521392822266	-498.2393798828125	-0.0	-0.0	-0.0	-0.0	-0.0	-0.0	144265.0	-51101.90625	9572.5029296875
0.614	-0.0	-0.0	-0.0	-0.9606381058692932	21.556568145751957	-328.6210632324219	19.385942459106445	-34.44021224975586	-499.7388000488281	-0.0	-0.0	-0.0	-0.0	-0.0	-0.0	144872.390625	-51265.54296875	9757.5341796875
0.6145	-0.0	-0.0	-0.0	-0.71368408203125	21.22695541381836	-324.19268798828125	19.63682556152344	-34.35169219970703	-500.0455322265625	-0.0	-0.0	-0.0	-0.0	-0.0	-0.0	145221.375	-51597.47265625	9846.7421875
0.615	-0.0	-0.0	-0.0	0.2401245087385177	20.829280853271484	-322.56219482421875	19.90338134765625	-34.92839050292969	-499.0193481445313	-0.0	-0.0	-0.0	-0.0	-0.0	-0.0	144969.0625	-51664.8359375	9849.9267578125
0.6155	-0.0	-0.0	-0.0	1.0500311851501465	19.759248733520508	-318.7592468261719	19.897891998291016	-35.3612060546875	-497.8429870605469	-0.0	-0.0	-0.0	-0.0	-0.0	-0.0	144393.6875	-51401.6484375	9988.123046875
0.616	-0.0	-0.0	-0.0	1.460833191871643	19.896507263183597	-315.9341735839844	19.747438430786133	-35.00209426879883	-496.0632629394531	-0.0	-0.0	-0.0	-0.0	-0.0	-0.0	143727.71875	-51181.69921875	10024.701171875
0.6165	-0.0	-0.0	-0.0	2.051841735839844	19.18340301513672	-311.746826171875	19.543376922607425	-34.615699768066406	-494.398681640625	-0.0	-0.0	-0.0	-0.0	-0.0	-0.0	143425.703125	-51287.03125	9906.0185546875
0.617	-0.0	-0.0	-0.0	2.3194732666015625	19.381885528564453	-310.79833984375	18.76569366455078	-34.81915283203125	-493.3512573242188	-0.0	-0.0	-0.0	-0.0	-0.0	-0.0	142770.984375	-51102.5703125	9697.7900390625
0.6175	-0.0	-0.0	-0.0	2.489736557006836	18.78627014160156	-310.09197998046875	18.028738021850582	-34.758026123046875	-492.6529541015625	-0.0	-0.0	-0.0	-0.0	-0.0	-0.0	142904.109375	-50964.58203125	9576.3271484375
0.618	-0.0	-0.0	-0.0	2.935497760772705	18.798072814941406	-306.9598388671875	17.422107696533203	-34.58152770996094	-491.7942504882813	-0.0	-0.0	-0.0	-0.0	-0.0	-0.0	143127.421875	-51065.48046875	9354.59375
0.6185	-0.0	-0.0	-0.0	3.7152037620544434	18.65701484680176	-308.0755920410156	16.555667877197266	-34.60923767089844	-494.8278503417969	-0.0	-0.0	-0.0	-0.0	-0.0	-0.0	143491.484375	-51152.67578125	9185.2421875
0.619	-0.0	-0.0	-0.0	4.498383045196533	18.04446601867676	-304.98846435546875	15.5928316116333	-34.34457015991211	-496.4138488769531	-0.0	-0.0	-0.0	-0.0	-0.0	-0.0	143894.828125	-51160.5859375	8897.359375
0.6195	-0.0	-0.0	-0.0	5.064991474151611	18.330055236816406	-303.5036315917969	15.08876895904541	-34.16828918457031	-495.9542541503906	-0.0	-0.0	-0.0	-0.0	-0.0	-0.0	143995.9375	-51413.1328125	8762.3505859375
0.62	-0.0	-0.0	-0.0	6.086273193359375	17.747522354125977	-304.44110107421875	14.084869384765623	-33.726924896240234	-497.19189453125	-0.0	-0.0	-0.0	-0.0	-0.0	-0.0	144317.453125	-51275.3671875	8446.2470703125
0.6205	-0.0	-0.0	-0.0	6.829413414001465	17.9447021484375	-301.8113098144531	14.084930419921877	-33.385597229003906	-497.7782287597656	-0.0	-0.0	-0.0	-0.0	-0.0	-0.0	144592.859375	-51714.25390625	8234.7080078125
0.621	-0.0	-0.0	-0.0	7.285526275634766	17.766658782958984	-298.5155639648437	13.129196166992188	-33.06086349487305	-498.554443359375	-0.0	-0.0	-0.0	-0.0	-0.0	-0.0	144977.796875	-51496.6953125	8290.591796875
0.6215	-0.0	-0.0	-0.0	7.513458728790283	17.598642349243164	-296.8677673339844	13.44186305999756	-32.738651275634766	-498.5447998046875	-0.0	-0.0	-0.0	-0.0	-0.0	-0.0	145128.3125	-51581.0625	8010.5341796875
0.622	-0.0	-0.0	-0.0	8.128554344177246	16.97414779663086	-294.001708984375	12.77435302734375	-32.43386459350586	-500.3702697753906	-0.0	-0.0	-0.0	-0.0	-0.0	-0.0	145054.859375	-51734.140625	8056.16259765625
0.6225	-0.0	-0.0	-0.0	8.862088203430176	17.132673263549805	-293.6122741699219	12.93193244934082	-32.34549331665039	-499.5578918457031	-0.0	-0.0	-0.0	-0.0	-0.0	-0.0	145306.390625	-51713.57421875	7941.18505859375
0.623	-0.0	-0.0	-0.0	8.703442573547363	16.537025451660156	-288.3499755859375	12.981139183044434	-32.3060417175293	-499.9474182128906	-0.0	-0.0	-0.0	-0.0	-0.0	-0.0	145377.3125	-51988.5625	7977.2421875
0.6235	-0.0	-0.0	-0.0	9.06882381439209	16.42788314819336	-286.1198425292969	12.76451587677002	-32.05094146728516	-500.37310791015625	-0.0	-0.0	-0.0	-0.0	-0.0	-0.0	145744.796875	-52026.23828125	8125.59521484375
0.624	-0.0	-0.0	-0.0	9.685002326965332	16.29140853881836	-284.277587890625	12.922046661376951	-32.4240837097168	-498.1619873046875	-0.0	-0.0	-0.0	-0.0	-0.0	-0.0	145132.859375	-51921.140625	8016.81982421875
0.6245	-0.0	-0.0	-0.0	9.88295555114746	16.17510986328125	-281.33074951171875	13.178706169128418	-32.36476516723633	-498.8605346679688	-0.0	-0.0	-0.0	-0.0	-0.0	-0.0	144910.359375	-51822.8984375	8109.095703125
0.625	-0.0	-0.0	-0.0	10.398953437805176	16.035999298095703	-278.1996459960937	13.237434387207031	-32.472389221191406	-496.6539001464844	-0.0	-0.0	-0.0	-0.0	-0.0	-0.0	144356.390625	-51787.7421875	8158.7783203125
0.6255000000000001	-0.0	-0.0	-0.0	10.565418243408203	15.349700927734377	-276.7690124511719	13.07944393157959	-32.22666931152344	-493.9303894042969	-0.0	-0.0	-0.0	-0.0	-0.0	-0.0	143843.125	-51648.19921875	8191.29638671875
0.626	-0.0	-0.0	-0.0	10.603705406188965	15.34276294708252	-274.9750366210937	13.31770133972168	-32.87773513793945	-492.6529541015625	-0.0	-0.0	-0.0	-0.0	-0.0	-0.0	143599.8125	-51602.53515625	8221.765625
0.6265000000000001	-0.0	-0.0	-0.0	11.023768424987791	15.55951976776123	-273.00811767578125	13.275981903076172	-32.659751892089844	-492.5005798339844	-0.0	-0.0	-0.0	-0.0	-0.0	-0.0	143315.3125	-51359.3671875	8198.6669921875
0.627	-0.0	-0.0	-0.0	10.794471740722656	14.9038667678833	-271.94854736328125	13.19083023071289	-33.13984680175781	-491.6508483886719	-0.0	-0.0	-0.0	-0.0	-0.0	-0.0	143232.078125	-51622.171875	8096.6455078125
0.6275000000000001	-0.0	-0.0	-0.0	11.01807689666748	14.70651626586914	-271.92498779296875	12.874873161315918	-33.08235549926758	-489.464111328125	-0.0	-0.0	-0.0	-0.0	-0.0	-0.0	142704.828125	-51361.70703125	7990.75732421875
0.628	-0.0	-0.0	-0.0	10.70526123046875	14.962489128112791	-269.2734375	12.64728832244873	-33.25909423828125	-489.1331787109375	-0.0	-0.0	-0.0	-0.0	-0.0	-0.0	142576.90625	-51316.0078125	7920.845703125
0.6285000000000001	-0.0	-0.0	-0.0	10.53225040435791	14.071791648864746	-269.7760009765625	12.083783149719238	-33.27824783325195	-487.0935363769531	-0.0	-0.0	-0.0	-0.0	-0.0	-0.0	142430.328125	-51413.65625	7893.07373046875
0.629	-0.0	-0.0	-0.0	10.399927139282228	14.147857666015623	-268.36212158203125	12.153377532958984	-33.20295715332031	-488.4887390136719	-0.0	-0.0	-0.0	-0.0	-0.0	-0.0	142257.625	-51467.53125	7789.11572265625
0.6295000000000001	-0.0	-0.0	-0.0	10.897683143615724	14.2608642578125	-271.6698303222656	12.032941818237305	-33.75156021118164	-488.463134765625	-0.0	-0.0	-0.0	-0.0	-0.0	-0.0	142122.859375	-51249.78515625	7871.56396484375
0.63	-0.0	-0.0	-0.0	10.897974014282228	14.256430625915527	-272.9690856933594	12.121435165405272	-33.36088180541992	-488.53759765625	-0.0	-0.0	-0.0	-0.0	-0.0	-0.0	141926.71875	-51269.78515625	7689.46142578125
0.6305000000000001	-0.0	-0.0	-0.0	10.333931922912598	14.115741729736328	-272.52362060546875	12.17225170135498	-33.208953857421875	-486.8436584472656	-0.0	-0.0	-0.0	-0.0	-0.0	-0.0	141850.984375	-51258.74609375	7738.11767578125
0.631	-0.0	-0.0	-0.0	10.48960018157959	14.238374710083008	-273.3766784667969	11.766264915466309	-33.120635986328125	-487.5426940917969	-0.0	-0.0	-0.0	-0.0	-0.0	-0.0	142002.515625	-51464.203125	7789.015625
0.6315000000000001	-0.0	-0.0	-0.0	10.560409545898438	14.420594215393066	-271.59539794921875	12.08340835571289	-33.1902961730957	-486.8648681640625	-0.0	-0.0	-0.0	-0.0	-0.0	-0.0	141922.203125	-51468.13671875	7837.7373046875
0.632	-0.0	-0.0	-0.0	10.988109588623049	14.313031196594238	-271.5823669433594	12.793045997619627	-33.17646789550781	-487.4705505371094	-0.0	-0.0	-0.0	-0.0	-0.0	-0.0	142279.984375	-51315.61328125	7836.63916015625
